<svg xmlns="http://www.w3.org/2000/svg" viewBox="0 0 512 640" fill="#ff9800"><path d="M256 1C115.167 1 1 115.167 1 256s114.167 255 255 255 255-114.167 255-255S396.833 1 256 1zm124.802 219.035L250.419 338.073a25.835 25.835 0 0 1-10.824 5.868 26.053 26.053 0 0 1-10.6 2.275c-6.45 0-12.91-2.377-17.962-7.169l-80.277-76.204c-10.45-9.921-10.877-26.433-.957-36.883 9.911-10.45 26.428-10.882 36.883-.961l63.898 60.653 115.199-104.304c10.679-9.67 27.178-8.854 36.848 1.829 9.669 10.685 8.853 27.183-1.825 36.858z"/></svg>